<svg width="2" height="12" viewBox="0 0 2 12" fill="none" xmlns="http://www.w3.org/2000/svg">
<path d="M1.41665 1.83333C1.41665 2.06345 1.2301 2.25 0.999979 2.25C0.769861 2.25 0.583313 2.06345 0.583313 1.83333C0.583313 1.60321 0.769861 1.41666 0.999979 1.41666C1.2301 1.41666 1.41665 1.60321 1.41665 1.83333Z" stroke="#141414"/>
<path d="M1.41665 6C1.41665 6.23012 1.2301 6.41666 0.999979 6.41666C0.769861 6.41666 0.583313 6.23012 0.583313 6C0.583313 5.76988 0.769861 5.58333 0.999979 5.58333C1.2301 5.58333 1.41665 5.76988 1.41665 6Z" stroke="#141414"/>
<path d="M1.41665 10.1667C1.41665 10.3968 1.2301 10.5833 0.999979 10.5833C0.769861 10.5833 0.583313 10.3968 0.583313 10.1667C0.583313 9.93654 0.769861 9.75 0.999979 9.75C1.2301 9.75 1.41665 9.93654 1.41665 10.1667Z" stroke="#141414"/>
</svg>
